<?xml version="1.0" encoding="UTF-8" standalone="no"?>
<!-- Created with Inkscape (http://www.inkscape.org/) -->

<svg
   xmlns:dc="http://purl.org/dc/elements/1.1/"
   xmlns:cc="http://creativecommons.org/ns#"
   xmlns:rdf="http://www.w3.org/1999/02/22-rdf-syntax-ns#"
   xmlns:svg="http://www.w3.org/2000/svg"
   xmlns="http://www.w3.org/2000/svg"
   xmlns:xlink="http://www.w3.org/1999/xlink"
   xmlns:sodipodi="http://sodipodi.sourceforge.net/DTD/sodipodi-0.dtd"
   xmlns:inkscape="http://www.inkscape.org/namespaces/inkscape"
   width="512"
   height="512"
   viewBox="0 0 135.46667 135.46667"
   version="1.1"
   id="svg8"
   inkscape:version="0.92.4 (5da689c313, 2019-01-14)"
   sodipodi:docname="logo.svg"
   inkscape:export-filename="logo.png"
   inkscape:export-xdpi="96"
   inkscape:export-ydpi="96">
  <defs
     id="defs2">
    <inkscape:path-effect
       effect="envelope"
       id="path-effect1071"
       is_visible="true"
       yy="true"
       xx="true"
       bendpath1="m 17.903933,155.97388 c 48.061355,-2.1381 33.184916,1.51953 292.315367,22.17664"
       bendpath2="m 305.01555,176.80648 v 48.42087"
       bendpath3="m 27.93973,284.70105 c 94.38868,-14.0909 177.78151,-76.08667 273.73055,-66.5299"
       bendpath4="m 14.186971,176.80648 v 48.42087"
       bendpath1-nodetypes="cc"
       bendpath3-nodetypes="cc" />
    <inkscape:path-effect
       effect="bspline"
       id="path-effect1069"
       is_visible="true"
       weight="33.333333"
       steps="2"
       helper_size="0"
       apply_no_weight="true"
       apply_with_weight="true"
       only_selected="false" />
  </defs>
  <sodipodi:namedview
     id="base"
     pagecolor="#ffffff"
     bordercolor="#666666"
     borderopacity="1.0"
     inkscape:pageopacity="0.0"
     inkscape:pageshadow="2"
     inkscape:zoom="1.4"
     inkscape:cx="190.91134"
     inkscape:cy="82.053361"
     inkscape:document-units="px"
     inkscape:current-layer="text825"
     showgrid="false"
     units="px"
     inkscape:window-width="1920"
     inkscape:window-height="2099"
     inkscape:window-x="0"
     inkscape:window-y="34"
     inkscape:window-maximized="0" />
  <metadata
     id="metadata5">
    <rdf:RDF>
      <cc:Work
         rdf:about="">
        <dc:format>image/svg+xml</dc:format>
        <dc:type
           rdf:resource="http://purl.org/dc/dcmitype/StillImage" />
        <dc:title></dc:title>
      </cc:Work>
    </rdf:RDF>
  </metadata>
  <g
     inkscape:label="Layer 1"
     inkscape:groupmode="layer"
     id="layer1"
     transform="translate(0,-161.53335)">
    <flowRoot
       xml:space="preserve"
       id="flowRoot815"
       style="font-style:normal;font-weight:normal;font-size:40px;line-height:1000;font-family:sans-serif;letter-spacing:20.02000046px;word-spacing:0px;fill:#000000;fill-opacity:1;stroke:none"
       transform="matrix(0.26458333,0,0,0.26458333,0,138.25001)"><flowRegion
         id="flowRegion817"><rect
           id="rect819"
           width="1060.6602"
           height="358.60416"
           x="81.822357"
           y="140.38058" /></flowRegion><flowPara
         id="flowPara821">Spss</flowPara></flowRoot>    <g
       aria-label="Spacewars!"
       style="font-style:normal;font-weight:normal;font-size:10.58333302px;line-height:1000;font-family:sans-serif;letter-spacing:5.29695845px;word-spacing:0px;fill:#ffffff;fill-opacity:1;stroke:#000000;stroke-width:2.83747053;stroke-miterlimit:4;stroke-dasharray:none;stroke-opacity:1"
       id="text825"
       inkscape:path-effect="#path-effect1071"
       transform="matrix(1.0168955,0,0,1.124897,-5.5311228,-31.131936)">
      <path
         d="m 16.281901,242.31678 c 0.523844,0.26921 0.941561,0.36179 1.253499,0.29309 0.27584,-0.0837 0.490732,-0.25088 0.645738,-0.49532 0.02813,-0.0437 0.05433,-0.0899 0.07863,-0.13861 0.156594,-0.3583 0.242273,-0.78126 0.258556,-1.26416 0.02936,-0.51235 0.01804,-1.0372 -0.03329,-1.57421 -0.06504,-0.68036 -0.212121,-1.31939 -0.44143,-1.92544 -0.125568,-0.33185 -0.263456,-0.64842 -0.413834,-0.95085 0,0 0,0 0,0 -0.122607,-0.25022 -0.25368,-0.49086 -0.393379,-0.72254 -0.311693,-0.54643 -0.650634,-1.05822 -1.018351,-1.54035 -0.370506,-0.51614 -0.73831,-1.0024 -1.10426,-1.45992 -0.486508,-0.58806 -0.993589,-1.24302 -1.522902,-1.96656 -0.529233,-0.72343 -1.025539,-1.54477 -1.487092,-2.45103 -0.44469,-0.89558 -0.830414,-1.88972 -1.154127,-2.96156 -0.3256,-1.10282 -0.525396,-2.31271 -0.595295,-3.59517 -0.138084,-2.53354 0.249542,-4.04136 1.114407,-4.77314 0.877235,-0.71833 2.130966,-0.59802 3.687313,0.20725 0.430165,0.22259 0.831339,0.4613 1.205203,0.7198 0.415161,0.27977 0.79953,0.58299 1.15397,0.9139 0.696312,0.64238 1.282796,1.25799 1.763901,1.86721 -0.212709,1.15615 -0.419036,2.34982 -0.618445,3.5852 -0.422846,-0.56622 -0.88845,-1.09894 -1.398389,-1.60649 -0.21383,-0.21653 -0.441027,-0.41522 -0.681805,-0.59732 -0.309246,-0.2397 -0.642631,-0.45107 -1.001291,-0.63701 -1.551159,-0.80408 -2.309962,-0.33243 -2.190999,1.73317 0.03023,0.52464 0.13991,1.04556 0.328507,1.55776 0.186715,0.48214 0.413057,0.96087 0.678126,1.43204 0.279393,0.44989 0.581017,0.88216 0.904096,1.29351 0.339284,0.42008 0.668351,0.81644 0.987796,1.18981 0.257567,0.30578 0.51989,0.62444 0.787313,0.9561 0.243706,0.29631 0.491921,0.60278 0.745053,0.91971 0.549311,0.64609 1.06408,1.419 1.548142,2.3344 0.497673,0.88966 0.935468,1.94103 1.319945,3.18315 0.381545,1.20922 0.661817,2.6884 0.853754,4.50018 0.327349,3.09006 0.164173,5.52191 -0.582909,7.0691 -0.449233,0.92565 -1.129962,1.4536 -2.051566,1.49974 -0.576373,0.0283 -1.249736,-0.13561 -2.019533,-0.51408 -1.332492,-0.65512 -2.444075,-1.60418 -3.309814,-2.73947 -0.867259,-1.17285 -1.533197,-2.20079 -1.982087,-3.02143 0.152824,-1.76979 0.312441,-3.47381 0.47891,-5.11817 0.51161,0.89084 1.109071,1.79906 1.787768,2.7022 0.696792,0.91456 1.506575,1.62608 2.420168,2.09559 z"
         style="font-style:normal;font-variant:normal;font-weight:bold;font-stretch:normal;font-size:60.67777634px;font-family:'Ubuntu Mono';-inkscape-font-specification:'Ubuntu Mono Bold';letter-spacing:0px;fill:#ff0000;stroke:#000000;stroke-width:0.33496636;stroke-miterlimit:4;stroke-dasharray:none;stroke-opacity:1"
         id="path1048"
         inkscape:original-d="m 25.837104,209.75452 q 1.881011,0 3.094567,-0.36407 1.274233,-0.42475 2.002366,-1.0922 0.728134,-0.72813 0.970845,-1.57762 0.303389,-0.91017 0.303389,-1.82034 0,-1.15287 -0.667456,-2.06304 -0.667455,-0.91017 -1.698978,-1.57762 -1.031522,-0.72814 -2.305755,-1.27424 -1.274233,-0.60677 -2.548467,-1.0922 -1.698977,-0.60677 -3.519311,-1.39559 -1.820333,-0.78881 -3.337277,-2.00236 -1.456267,-1.21356 -2.427111,-2.97321 -0.970845,-1.82034 -0.970845,-4.49016 0,-5.27897 3.397956,-8.25218 3.458633,-2.97321 9.465733,-2.97321 3.458633,0 6.0071,0.78881 2.609144,0.78881 4.368799,1.75966 l -2.1844,5.76439 q -1.516944,-0.84949 -3.397955,-1.45627 -1.820333,-0.60678 -4.247444,-0.60678 -5.946422,0 -5.946422,4.30813 0,1.0922 0.606777,1.94168 0.606778,0.78882 1.516945,1.45627 0.970844,0.60678 2.123722,1.0922 1.213555,0.48542 2.366433,0.91017 1.759656,0.66745 3.640667,1.51694 1.941689,0.78881 3.519311,2.1844 1.6383,1.33491 2.669822,3.39796 1.031522,2.00236 1.031522,5.09693 0,5.27897 -3.458633,8.1915 -3.397956,2.85186 -10.3759,2.85186 -4.672189,0 -7.463366,-0.97085 -2.791178,-1.03152 -4.186767,-1.88101 l 2.1844,-6.06778 q 1.6383,0.97085 3.883378,1.82034 2.305755,0.84949 5.582355,0.84949 z"
         inkscape:connector-curvature="0" />
      <path
         d="m 30.594822,238.755 c -0.259193,-2.04734 -0.64479,-3.64973 -1.182588,-4.90672 -0.5389,-1.28234 -1.211149,-1.95226 -2.02934,-2.06688 -0.224722,-0.0317 -0.462491,-0.0374 -0.713262,-0.0178 -0.254777,-0.012 -0.466203,-0.0199 -0.640717,-0.021 0.373129,3.92627 0.849458,8.19853 1.465194,12.81485 0.236547,0.30818 0.533234,0.56832 0.889082,0.77308 0.356058,0.20485 0.699813,0.31307 1.031049,0.32599 0.730323,0.0285 1.173172,-0.6061 1.347191,-1.82042 0.16935,-1.25086 0.101178,-2.9655 -0.166609,-5.08068 z m 3.040062,-0.28142 c 0.229125,1.70871 0.367042,3.35263 0.403592,4.91993 2.88e-4,0.0141 5.86e-4,0.0282 8.97e-4,0.0421 0.02839,1.51736 -0.04571,2.89005 -0.235544,4.09276 -0.197316,1.17808 -0.526981,2.14493 -1.000884,2.86336 -0.473787,0.71827 -1.094726,1.11104 -1.867808,1.13249 -0.790144,0.0221 -1.675733,-0.42719 -2.648196,-1.36483 0.504357,3.37214 1.085472,6.93222 1.757322,10.68049 -1.067461,0.008 -2.140137,-0.0475 -3.219279,-0.17092 -2.186197,-13.32702 -3.374111,-24.45226 -4.062374,-33.39002 0.516205,-0.16353 1.152685,-0.24295 1.915314,-0.26255 0.77737,-0.016 1.547908,0.038 2.311608,0.16233 1.732809,0.28184 3.151417,1.29155 4.276913,3.21157 0.611469,1.04314 1.116075,2.2791 1.525111,3.75778 0.345997,1.25542 0.623214,2.68352 0.843385,4.32546 z"
         style="font-style:normal;font-variant:normal;font-weight:bold;font-stretch:normal;font-size:60.67777634px;font-family:'Ubuntu Mono';-inkscape-font-specification:'Ubuntu Mono Bold';letter-spacing:0px;fill:#ff0000;stroke:#000000;stroke-width:0.33496636;stroke-miterlimit:4;stroke-dasharray:none;stroke-opacity:1"
         id="path1050"
         inkscape:original-d="m 62.971903,201.19895 q 0,-3.8227 -1.516944,-6.24981 -1.516945,-2.48779 -4.611511,-2.48779 -0.849489,0 -1.820333,0.12135 -0.970845,0.0607 -1.6383,0.12136 v 15.65487 q 0.728133,0.48542 1.941688,0.78881 1.213556,0.30339 2.427112,0.30339 2.669822,0 3.944055,-2.12373 1.274233,-2.1844 1.274233,-6.12845 z m 7.584722,-0.24271 q 0,3.2766 -0.728133,6.06778 -0.728133,2.7305 -2.123722,4.73286 -1.395589,1.94169 -3.519311,3.03389 -2.123722,1.0922 -4.9149,1.0922 -2.851856,0 -5.885744,-1.39559 v 10.73997 h -7.463367 v -37.62022 q 2.063045,-0.66746 5.036256,-1.0922 3.033888,-0.42475 5.946422,-0.42475 6.613877,0 10.133188,4.00474 3.519311,4.00473 3.519311,10.86132 z"
         inkscape:connector-curvature="0" />
      <path
         d="m 41.637343,244.00717 c 0.32564,-0.11706 0.643245,-0.23586 0.952217,-0.3554 0.302945,-0.15096 0.562764,-0.30598 0.778238,-0.46092 -0.318356,-1.68284 -0.607537,-3.32104 -0.870724,-4.91385 -0.204023,0.008 -0.4456,0.0437 -0.725673,0.10416 -0.284836,0.0306 -0.540348,0.0794 -0.767076,0.14858 -0.307549,0.0938 -0.60008,0.22641 -0.87733,0.39942 -0.28207,0.14279 -0.522338,0.33406 -0.720459,0.57801 -0.181849,0.23964 -0.311101,0.54546 -0.386464,0.92146 -0.07531,0.37577 -0.06761,0.84749 0.02633,1.41809 0.167143,1.01533 0.49162,1.70815 0.962547,2.03978 0.465956,0.29982 1.009004,0.34327 1.628408,0.12066 z m -2.734854,-16.99789 c 0.92899,-0.15814 1.717773,-0.13979 2.367639,0.0774 0.663138,0.18787 1.217158,0.5406 1.665341,1.07821 0.445315,0.51227 0.808856,1.20251 1.098115,2.09361 0.285967,0.86575 0.515692,1.88356 0.698782,3.08006 0.581237,3.79843 1.320647,7.88306 2.273858,12.23898 -0.392901,0.41678 -1.004428,0.99055 -1.807875,1.66943 -0.807085,0.68195 -1.753176,1.27045 -2.833645,1.71519 -0.738024,0.30379 -1.438069,0.42064 -2.101104,0.3547 -0.646304,-0.0716 -1.242695,-0.36466 -1.786014,-0.86666 -0.324245,-0.31649 -0.623477,-0.70666 -0.896465,-1.16581 -0.189455,-0.31888 -0.366182,-0.67077 -0.529711,-1.05391 -0.404976,-0.96917 -0.722801,-2.17791 -0.942735,-3.58702 -0.209505,-1.34232 -0.240397,-2.46593 -0.107149,-3.38375 0.04309,-0.2969 0.09871,-0.57546 0.166562,-0.83626 0,0 0,0 0,0 0.142115,-0.54703 0.33798,-1.01672 0.585584,-1.41525 0.365762,-0.58868 0.818623,-1.03422 1.355368,-1.35435 0.532675,-0.34958 1.106139,-0.59517 1.718959,-0.74672 0.774339,-0.19145 1.476082,-0.27026 2.10619,-0.22647 -0.03135,-0.21208 -0.06225,-0.42331 -0.09271,-0.63375 -0.142153,-0.98196 -0.427944,-1.72548 -0.865279,-2.26424 -0.440173,-0.56516 -1.092012,-0.74273 -1.959911,-0.5688 -0.562548,0.11272 -1.100991,0.27865 -1.614748,0.50287 -0.498299,0.22192 -0.89538,0.44767 -1.193956,0.68929 -0.306802,-1.398 -0.596469,-2.76503 -0.870576,-4.09802 0.347671,-0.24793 0.846699,-0.48054 1.504165,-0.72028 0.653283,-0.26582 1.340708,-0.45579 2.061311,-0.57842 z"
         style="font-style:normal;font-variant:normal;font-weight:bold;font-stretch:normal;font-size:60.67777634px;font-family:'Ubuntu Mono';-inkscape-font-specification:'Ubuntu Mono Bold';letter-spacing:0px;fill:#ff0000;stroke:#000000;stroke-width:0.33496636;stroke-miterlimit:4;stroke-dasharray:none;stroke-opacity:1"
         id="path1052"
         inkscape:original-d="m 87.667758,209.87587 q 1.213556,0 2.366434,0 1.152877,-0.0607 2.002366,-0.18203 v -6.5532 q -0.728133,-0.12136 -1.759655,-0.18204 -1.031523,-0.12135 -1.881011,-0.12135 -1.152878,0 -2.245078,0.18203 -1.0922,0.12136 -1.941689,0.48542 -0.788811,0.36407 -1.274233,1.03153 -0.485423,0.66745 -0.485423,1.75965 0,1.94169 1.456267,2.79118 1.456267,0.78881 3.762022,0.78881 z m -0.667455,-23.90704 q 3.519311,0 5.825066,0.84949 2.366434,0.78881 3.762022,2.30575 1.395589,1.45627 2.002367,3.64067 0.606778,2.12372 0.606778,4.79354 v 16.98978 q -1.6383,0.36407 -4.854222,0.84949 -3.215923,0.48542 -7.220656,0.48542 -2.7305,0 -4.975577,-0.48542 -2.1844,-0.48542 -3.762023,-1.57762 -1.577622,-1.15288 -2.427111,-2.91254 -0.849488,-1.82033 -0.849488,-4.42947 0,-2.48779 0.970844,-4.18677 0.970844,-1.69898 2.609144,-2.7305 1.6383,-1.03152 3.762022,-1.45627 2.123723,-0.48542 4.429478,-0.48542 2.912533,0 5.157611,0.48542 v -0.91016 q 0,-2.12373 -1.334911,-3.51932 -1.334911,-1.45626 -4.611511,-1.45626 -2.123722,0 -4.126089,0.30339 -1.941689,0.30339 -3.155244,0.72813 l -1.031522,-6.0071 q 1.395589,-0.48542 3.944055,-0.84949 2.548467,-0.42474 5.278967,-0.42474 z"
         inkscape:connector-curvature="0" />
      <path
         d="m 47.59613,234.58332 c -0.236923,-1.3775 -0.308772,-2.70058 -0.224961,-3.96211 0.08385,-1.26217 0.343178,-2.39305 0.766606,-3.40855 0.420338,-1.04045 1.011216,-1.93032 1.765228,-2.69968 0.767664,-0.7995 1.723135,-1.4272 2.865115,-1.92957 0.68515,-0.30143 1.315625,-0.51818 1.889542,-0.64846 0.574007,-0.13022 1.169066,-0.18706 1.785451,-0.17529 -0.077,1.15532 -0.137966,2.34153 -0.180446,3.55961 -0.35261,0.0212 -0.742017,0.0823 -1.168186,0.18229 -0.413214,0.0691 -0.930097,0.25974 -1.54914,0.56777 -0.717071,0.35685 -1.298906,0.77221 -1.746542,1.26602 -0.434669,0.46196 -0.76262,0.98895 -0.981348,1.59155 -0.222447,0.57785 -0.346152,1.22271 -0.36679,1.9394 -0.02063,0.7165 0.03726,1.46354 0.176786,2.23893 0.302722,1.68236 0.866357,2.89351 1.655098,3.53355 0.81023,0.63453 1.925461,0.48908 3.352884,-0.46925 0.469626,-0.31529 0.942905,-0.69746 1.422018,-1.14389 0.494892,-0.45722 0.927643,-0.94643 1.298348,-1.45883 0.432219,1.12413 0.889287,2.26299 1.373576,3.4144 -0.352334,0.57598 -0.806692,1.17749 -1.361504,1.7927 -0.547324,0.64046 -1.225957,1.27444 -2.031612,1.87452 -1.164195,0.86717 -2.227499,1.31675 -3.202018,1.34724 -0.955955,0.0199 -1.809074,-0.29673 -2.552864,-0.92302 -0.742942,-0.62557 -1.374176,-1.52398 -1.882222,-2.65539 -0.491627,-1.13932 -0.861376,-2.42909 -1.103019,-3.83402 z"
         style="font-style:normal;font-variant:normal;font-weight:bold;font-stretch:normal;font-size:60.67777634px;font-family:'Ubuntu Mono';-inkscape-font-specification:'Ubuntu Mono Bold';letter-spacing:0px;fill:#ff0000;stroke:#000000;stroke-width:0.33496636;stroke-miterlimit:4;stroke-dasharray:none;stroke-opacity:1"
         id="path1054"
         inkscape:original-d="m 105.44634,200.95624 q 0,-3.09457 0.97085,-5.82507 0.97084,-2.7305 2.97321,-4.73287 2.00237,-2.06304 5.03626,-3.21592 3.09456,-1.21355 7.34201,-1.21355 2.54846,0 4.61151,0.36406 2.06304,0.36407 4.18676,1.21356 l -1.6383,6.0071 q -1.21355,-0.42475 -2.7305,-0.72813 -1.45626,-0.36407 -3.76202,-0.36407 -2.66982,0 -4.49015,0.66745 -1.75966,0.60678 -2.85186,1.75966 -1.0922,1.0922 -1.57762,2.66982 -0.48542,1.57762 -0.48542,3.39796 0,3.94405 2.1844,6.18913 2.24507,2.24508 7.58472,2.24508 1.75965,0 3.64067,-0.24271 1.94168,-0.24271 3.51931,-0.78881 l 1.0922,6.12845 q -1.57763,0.60678 -3.8227,0.97085 -2.24508,0.42474 -5.27897,0.42474 -4.3688,0 -7.52404,-1.15288 -3.09457,-1.15287 -5.09694,-3.15524 -2.00236,-2.00237 -2.97321,-4.73287 -0.91017,-2.7305 -0.91017,-5.88574 z"
         inkscape:connector-curvature="0" />
      <path
         d="m 59.48439,228.08877 c -0.280315,-1.38506 -0.339935,-2.6719 -0.199134,-3.85066 0.14092,-1.17974 0.427489,-2.21621 0.845147,-3.1214 0.414773,-0.92581 0.938378,-1.71066 1.561714,-2.37101 0.623289,-0.66031 1.29099,-1.16878 1.996036,-1.54003 0.265004,-0.13959 0.522606,-0.26125 0.772478,-0.36543 0,0 0,0 0,0 0.507151,-0.2119 0.9835,-0.35169 1.427267,-0.42068 0.776436,-0.12405 1.457184,-0.0307 2.042377,0.27942 1.087976,0.56035 1.795832,1.83048 2.259072,3.95654 0.04727,0.2169 0.0892,0.44908 0.126255,0.69722 0.0538,0.23685 0.09012,0.43425 0.107911,0.59262 -0.363852,0.2533 -2.747959,1.92306 -3.111812,2.17636 0.157669,-0.1099 -1.514247,1.0549 -1.356579,0.94496 -1.035874,0.71942 -2.068997,1.43378 -3.098378,2.13719 0.217242,0.98453 0.718493,1.56197 1.484146,1.68358 0.69477,0.0916 1.476688,-0.17769 2.355557,-0.79552 0.0865,-0.0609 0.173909,-0.12505 0.262219,-0.19266 0.373644,-0.28582 0.726905,-0.59407 1.060105,-0.92221 0.207163,-0.20469 0.40661,-0.41706 0.598463,-0.63658 0.5165,-0.58472 0.945713,-1.09551 1.285082,-1.53301 0.404042,0.89938 0.832046,1.80515 1.286501,2.71545 -0.45651,0.64635 -0.955148,1.29088 -1.496032,1.92716 -0.225057,0.27647 -0.467216,0.55074 -0.726469,0.82183 -0.35674,0.37225 -0.74646,0.73901 -1.16879,1.09681 -0.04564,0.0387 -0.09117,0.0767 -0.136594,0.11425 0,0 0,0 0,0 -0.924919,0.76469 -1.799656,1.2987 -2.636645,1.58907 -0.867363,0.2683 -1.670746,0.26901 -2.408912,0.004 -0.727095,-0.30074 -1.366449,-0.87739 -1.90572,-1.70739 -0.538724,-0.82915 -0.95364,-1.93751 -1.22527,-3.27966 z m 7.49617,-6.55486 c -0.07225,-0.36045 -0.179666,-0.67287 -0.323445,-0.94036 -0.03709,-0.0721 -0.07679,-0.1398 -0.119094,-0.20314 0,0 0,0 0,0 -0.125747,-0.18844 -0.274701,-0.33902 -0.447379,-0.45254 -0.230675,-0.15157 -0.500841,-0.21875 -0.810859,-0.20217 -0.115359,-6.2e-4 -0.237797,0.0141 -0.367255,0.047 -0.2223,0.0552 -0.465759,0.15914 -0.72957,0.31239 -0.401002,0.23295 -0.7385,0.51255 -1.011909,0.8439 -0.256689,0.32156 -0.460979,0.68007 -0.611503,1.07805 -0.1339,0.38814 -0.225937,0.80067 -0.274742,1.2383 -0.03224,0.42755 -0.02691,0.84945 0.01634,1.26431 1.034891,-0.651 2.074056,-1.31302 3.116629,-1.98063 0.08155,-0.0524 1.28385,-0.82505 1.36541,-0.87736 0.01802,-0.012 0.179352,-0.11612 0.197383,-0.12783 z"
         style="font-style:normal;font-variant:normal;font-weight:bold;font-stretch:normal;font-size:60.67777634px;font-family:'Ubuntu Mono';-inkscape-font-specification:'Ubuntu Mono Bold';letter-spacing:0px;fill:#ff0000;stroke:#000000;stroke-width:0.33496636;stroke-miterlimit:4;stroke-dasharray:none;stroke-opacity:1"
         id="path1056"
         inkscape:original-d="m 134.99642,201.19895 q 0,-3.76202 1.15288,-6.61388 1.15288,-2.85185 3.03389,-4.73287 1.88101,-1.94168 4.30812,-2.91253 2.42711,-0.97084 4.97558,-0.97084 6.31049,0 9.58709,3.76202 3.2766,3.70134 3.2766,10.86132 0,0.72813 -0.0607,1.51695 0,0.78881 -0.0607,1.27423 H 142.7025 q 0,2.79118 2.30576,4.42948 2.30575,1.57762 5.94642,1.57762 2.24508,0 4.24744,-0.48542 2.06305,-0.48543 3.45864,-0.97085 l 1.03152,6.37117 q -1.94169,0.66745 -4.12609,1.0922 -2.1844,0.48542 -4.9149,0.48542 -3.64067,0 -6.5532,-0.91017 -2.85186,-0.97084 -4.9149,-2.79117 -2.00237,-1.88101 -3.09457,-4.61151 -1.0922,-2.7305 -1.0922,-6.37117 z m 19.1135,-2.97321 q 0,-1.15288 -0.30339,-2.1844 -0.30338,-1.0922 -0.97084,-1.94169 -0.66746,-0.84949 -1.69898,-1.33491 -1.03152,-0.5461 -2.54846,-0.5461 -1.45627,0 -2.54847,0.48542 -1.03152,0.48542 -1.75966,1.33491 -0.66745,0.84949 -1.0922,1.94169 -0.36406,1.0922 -0.48542,2.24508 z"
         inkscape:connector-curvature="0" />
      <image
         sodipodi:absref="/home/dpascoed/workspace/spacewars/resources/textures/backgrounds/gravity-well.png"
         xlink:href="textures/backgrounds/gravity-well.png"
         width="65.232376"
         height="58.969414"
         preserveAspectRatio="none"
         style="image-rendering:optimizeQuality"
         id="image5012"
         x="75.09687"
         y="192.27393" />
      <path
         d="m 80.807306,220.3175 c -0.348887,-0.34428 -0.660921,-0.65188 -0.956086,-0.93742 -0.276062,-0.29545 -0.541256,-0.57643 -0.799356,-0.84521 -0.245209,-0.29564 -0.496845,-0.59512 -0.754391,-0.89854 -0.244695,-0.33043 -0.503089,-0.69577 -0.772612,-1.09634 -0.05438,0.6065 -0.09387,1.1657 -0.122357,1.67068 -0.03261,0.48972 -0.06775,0.99033 -0.10499,1.5044 -0.02039,0.50067 -0.04069,1.02511 -0.05935,1.5679 -0.019,0.55193 -0.0481,1.16197 -0.08219,1.886 -0.767175,0.6142 -1.531969,1.23486 -2.295588,1.86081 -0.45536,-0.63148 -0.910872,-1.35266 -1.357895,-2.16091 -0.435496,-0.83878 -0.852195,-1.73336 -1.246771,-2.68211 -0.398557,-0.96612 -0.760182,-1.97072 -1.084656,-3.01023 -0.324462,-1.03944 -0.617807,-2.0973 -0.882012,-3.17218 0.898814,-0.48278 1.800581,-0.96343 2.707633,-1.44066 0.264688,1.33973 0.563707,2.66787 0.902856,3.98658 0.355498,1.30567 0.825626,2.64023 1.425459,3.98043 0.04566,-0.80455 0.08457,-1.49724 0.11137,-2.13115 0.03962,-0.65624 0.07109,-1.24643 0.09074,-1.78823 0.03335,-0.56826 0.06172,-1.08886 0.08295,-1.57604 0.03539,-0.51136 0.07493,-1.0241 0.118957,-1.53894 0.768748,-0.42936 1.539812,-0.8536 2.314203,-1.2718 0.177227,0.37058 0.357423,0.73328 0.540636,1.08826 0.198206,0.33126 0.402951,0.68102 0.619307,1.05469 0.230557,0.34877 0.470256,0.72263 0.725854,1.12761 0.268031,0.37776 0.58017,0.78393 0.937749,1.21173 -0.08469,-0.74884 -0.160351,-1.44678 -0.233518,-2.09837 -0.07322,-0.65238 -0.1487,-1.2778 -0.229678,-1.88372 -0.06637,-0.62961 -0.137114,-1.23476 -0.215092,-1.82128 -0.06278,-0.60955 -0.118867,-1.23356 -0.16795,-1.87425 0.928154,-0.44127 1.859634,-0.87226 2.795931,-1.29161 0.04265,2.07052 0.07053,3.57449 0.118875,5.62756 0.05495,1.66664 0.142487,3.55727 0.197432,5.22393 -0.777383,0.56481 -1.552205,1.14136 -2.325454,1.72841 z"
         style="font-style:normal;font-variant:normal;font-weight:bold;font-stretch:normal;font-size:60.67777634px;font-family:'Ubuntu Mono';-inkscape-font-specification:'Ubuntu Mono Bold';letter-spacing:0px;fill:#ff0000;stroke:#000000;stroke-width:0.33496636;stroke-miterlimit:4;stroke-dasharray:none;stroke-opacity:1"
         id="path1058"
         inkscape:original-d="m 182.99255,215.21552 q -0.66746,-1.88102 -1.27424,-3.45864 -0.5461,-1.57762 -1.0922,-3.03389 -0.48542,-1.51694 -1.03152,-3.09456 -0.48542,-1.6383 -1.03152,-3.57999 -0.60678,1.94169 -1.0922,3.51931 -0.48542,1.51694 -1.03152,3.03389 -0.48543,1.51694 -1.03153,3.09456 -0.5461,1.57763 -1.33491,3.51932 h -5.64303 q -0.72813,-2.66983 -1.39559,-5.88575 -0.60678,-3.2766 -1.15288,-6.91727 -0.5461,-3.70134 -0.97084,-7.6454 -0.42475,-3.94405 -0.78881,-8.07014 h 6.37116 q 0.24272,5.27897 0.48543,10.31522 0.30339,5.03626 1.03152,10.3759 0.78881,-2.30575 1.33491,-4.24744 0.60678,-2.00237 1.03152,-3.76202 0.48542,-1.82034 0.84949,-3.45864 0.42475,-1.69898 0.84949,-3.45863 h 5.40032 q 0.36407,1.75965 0.72814,3.45863 0.42474,1.6383 0.84948,3.45864 0.48543,1.75965 0.97085,3.76202 0.5461,1.94169 1.27423,4.24744 0.36407,-2.79118 0.60678,-5.33964 0.24271,-2.54847 0.36407,-5.03626 0.18203,-2.54846 0.24271,-5.03625 0.12135,-2.54847 0.24271,-5.27897 h 6.37117 q -0.66746,8.31286 -1.88102,15.65487 -1.15287,7.34201 -2.60914,12.86369 z"
         inkscape:connector-curvature="0" />
      <path
         d="m 91.163179,211.48796 c 0.346718,-0.18246 0.685177,-0.35709 1.015409,-0.52454 0.327265,-0.17887 0.60923,-0.33786 0.847281,-0.47952 -0.166603,-0.59935 -0.314252,-1.19968 -0.445356,-1.79994 -0.217155,0.0712 -0.478484,0.16852 -0.781435,0.29282 -0.305789,0.1133 -0.582405,0.22744 -0.829687,0.3423 -0.335597,0.15595 -0.658156,0.32753 -0.967173,0.51566 -0.311693,0.17629 -0.582219,0.36205 -0.811236,0.55685 -0.211448,0.18606 -0.371235,0.38241 -0.478687,0.58857 -0.107418,0.20608 -0.133363,0.4206 -0.07648,0.64105 0.101448,0.39329 0.388422,0.55968 0.851138,0.50119 0.461532,-0.071 1.015825,-0.28699 1.676232,-0.63444 z m -1.590077,-6.73392 c 1.05311,-0.38322 1.944581,-0.60274 2.653444,-0.67985 0.727949,-0.0945 1.319454,-0.07 1.769393,0.062 0.44971,0.12166 0.788291,0.34364 1.01951,0.66269 0.230273,0.30907 0.378475,0.69099 0.452392,1.15034 0.234831,1.4592 0.559006,2.91471 1.011896,4.34834 -0.447671,0.27846 -1.115165,0.67894 -1.996143,1.23518 -0.875288,0.55265 -1.887322,1.16204 -3.004532,1.81571 -0.767542,0.44907 -1.475573,0.82471 -2.139193,1.1167 -0.645724,0.28107 -1.224916,0.45081 -1.744248,0.49927 -0.522722,0.0354 -0.963154,-0.062 -1.318752,-0.29565 -0.358899,-0.24628 -0.619886,-0.65821 -0.770216,-1.22644 -0.143213,-0.5413 -0.113869,-1.07535 0.08137,-1.59033 0.19536,-0.51528 0.510379,-1.00164 0.940904,-1.4558 0.4306,-0.45425 0.949213,-0.86952 1.553127,-1.24614 0.601525,-0.38872 1.242413,-0.72999 1.919967,-1.02646 0.854668,-0.37401 1.626677,-0.64505 2.304198,-0.82448 -0.01492,-0.0834 -0.02943,-0.16692 -0.04387,-0.25034 -0.06678,-0.38869 -0.314423,-0.63486 -0.750493,-0.74036 -0.434268,-0.11589 -1.146661,0.008 -2.116192,0.40199 -0.629865,0.25623 -1.236111,0.54212 -1.817325,0.85895 -0.562895,0.30884 -1.015965,0.59206 -1.357359,0.84192 -0.252009,-0.54956 -0.493256,-1.10236 -0.724948,-1.6571 0.398924,-0.27351 0.975555,-0.60431 1.724557,-0.97665 0.748773,-0.38499 1.533722,-0.72559 2.352507,-1.02358 z"
         style="font-style:normal;font-variant:normal;font-weight:bold;font-stretch:normal;font-size:60.67777634px;font-family:'Ubuntu Mono';-inkscape-font-specification:'Ubuntu Mono Bold';letter-spacing:0px;fill:#ff0000;stroke:#000000;stroke-width:0.33496636;stroke-miterlimit:4;stroke-dasharray:none;stroke-opacity:1"
         id="path1060"
         inkscape:original-d="m 209.02331,209.87587 q 1.21355,0 2.36643,0 1.15288,-0.0607 2.00237,-0.18203 v -6.5532 q -0.72814,-0.12136 -1.75966,-0.18204 -1.03152,-0.12135 -1.88101,-0.12135 -1.15288,0 -2.24508,0.18203 -1.0922,0.12136 -1.94169,0.48542 -0.78881,0.36407 -1.27423,1.03153 -0.48542,0.66745 -0.48542,1.75965 0,1.94169 1.45626,2.79118 1.45627,0.78881 3.76203,0.78881 z m -0.66746,-23.90704 q 3.51931,0 5.82507,0.84949 2.36643,0.78881 3.76202,2.30575 1.39559,1.45627 2.00237,3.64067 0.60677,2.12372 0.60677,4.79354 v 16.98978 q -1.6383,0.36407 -4.85422,0.84949 -3.21592,0.48542 -7.22065,0.48542 -2.7305,0 -4.97558,-0.48542 -2.1844,-0.48542 -3.76202,-1.57762 -1.57762,-1.15288 -2.42711,-2.91254 -0.84949,-1.82033 -0.84949,-4.42947 0,-2.48779 0.97084,-4.18677 0.97085,-1.69898 2.60915,-2.7305 1.6383,-1.03152 3.76202,-1.45627 2.12372,-0.48542 4.42948,-0.48542 2.91253,0 5.15761,0.48542 v -0.91016 q 0,-2.12373 -1.33491,-3.51932 -1.33492,-1.45626 -4.61152,-1.45626 -2.12372,0 -4.12608,0.30339 -1.94169,0.30339 -3.15525,0.72813 l -1.03152,-6.0071 q 1.39559,-0.48542 3.94406,-0.84949 2.54846,-0.42474 5.27896,-0.42474 z"
         inkscape:connector-curvature="0" />
      <path
         d="m 109.06844,202.13651 c -0.22402,-0.004 -0.49649,-10e-4 -0.81369,0.007 -0.29918,0.007 -0.60762,0.0203 -0.92496,0.0419 -0.31795,0.0118 -0.62608,0.0356 -0.92429,0.068 -0.29764,0.0324 -0.55009,0.065 -0.75403,0.0959 -0.48331,0.0732 -0.95609,0.16435 -1.41778,0.27377 -0.46233,0.10029 -0.9319,0.23097 -1.40688,0.39407 0.15333,1.60521 0.40326,3.17975 0.81224,4.6906 -1.08903,0.33079 -2.17363,0.70353 -3.25542,1.11835 -0.611406,-2.03965 -0.941786,-4.1696 -1.123186,-6.31883 0.895606,-0.39953 1.819266,-0.74126 2.766696,-1.02668 0.96552,-0.2888 2.09952,-0.5291 3.3947,-0.69999 0.18628,-0.0245 0.45253,-0.0542 0.78954,-0.0856 0.35732,-0.0337 0.73388,-0.0576 1.12939,-0.0713 0.39525,-0.0225 0.79079,-0.033 1.18638,-0.0312 0.41388,-0.008 0.78193,0.004 1.10217,0.0333 -0.19506,0.50586 -0.38314,1.01062 -0.56088,1.51209 z"
         style="font-style:normal;font-variant:normal;font-weight:bold;font-stretch:normal;font-size:60.67777634px;font-family:'Ubuntu Mono';-inkscape-font-specification:'Ubuntu Mono Bold';letter-spacing:0px;fill:#ff0000;stroke:#000000;stroke-width:0.33496636;stroke-miterlimit:4;stroke-dasharray:none;stroke-opacity:1"
         id="path1062"
         inkscape:original-d="m 250.64827,194.28168 q -0.72813,-0.18203 -1.75965,-0.36406 -0.97085,-0.18204 -2.00237,-0.30339 -1.03152,-0.18204 -2.00237,-0.24271 -0.97084,-0.0607 -1.6383,-0.0607 -1.57762,0 -3.09456,0.18203 -1.51695,0.12136 -3.09457,0.5461 v 21.17655 h -7.52404 v -26.63755 q 2.97321,-1.0922 6.06777,-1.75965 3.15525,-0.66746 7.34201,-0.66746 0.60678,0 1.69898,0.0607 1.15288,0.0607 2.42711,0.24271 1.27424,0.12135 2.54847,0.36407 1.33491,0.18203 2.36643,0.5461 z"
         inkscape:connector-curvature="0" />
      <path
         d="m 117.26438,204.75181 c 0.8225,0.012 1.43106,0.0178 1.87243,-0.004 0.43331,-0.0287 0.64908,-0.1099 0.64638,-0.25389 -0.001,-0.0931 -0.0756,-0.1773 -0.22271,-0.25089 -0.1286,-0.0724 -0.32142,-0.1382 -0.57793,-0.19464 -0.23819,-0.0629 -0.52322,-0.12345 -0.85341,-0.17968 -0.31204,-0.0556 -0.64326,-0.11014 -0.99271,-0.16215 -0.0469,-0.007 -1.4742,-0.21067 -1.52102,-0.21729 -0.51788,-0.0823 -0.99116,-0.1783 -1.42088,-0.29253 -0.42966,-0.11425 -0.78764,-0.2588 -1.07395,-0.4394 -0.28637,-0.18826 -0.43667,-0.43116 -0.44655,-0.73209 -0.008,-0.24376 0.0885,-0.47731 0.29022,-0.69669 0.22012,-0.22799 0.55526,-0.42955 1.0045,-0.59787 0.46787,-0.17668 1.05987,-0.3074 1.77365,-0.38348 0.71378,-0.0843 1.5689,-0.10533 2.56138,-0.0517 0.86059,0.0462 1.6564,0.13123 2.38165,0.24686 0.74396,0.11729 1.38555,0.25963 1.92019,0.41886 -0.19164,0.40355 -0.38006,0.79648 -0.56772,1.18602 -0.28968,-0.0638 -0.82708,-0.18227 -1.46957,-0.31612 -0.66565,-0.14637 -1.41978,-0.24558 -2.25708,-0.28749 -0.87373,-0.0437 -1.47408,-0.0119 -1.78901,0.076 -0.29803,0.0803 -0.44635,0.17411 -0.44551,0.27702 6.1e-4,0.0874 0.0666,0.16731 0.19728,0.24044 0.1493,0.0658 0.33531,0.12824 0.55842,0.18846 0.24179,0.0609 0.5104,0.12305 0.80719,0.18807 0.10064,0.0178 0.89876,0.16334 0.99945,0.18188 0.49911,0.0941 1.01597,0.20134 1.54995,0.32265 0.53383,0.12125 1.01156,0.26652 1.43207,0.43136 0.43918,0.15914 0.79392,0.35081 1.0646,0.56972 0.27098,0.21171 0.40265,0.45215 0.39821,0.71575 -0.004,0.20676 -0.10604,0.38869 -0.30608,0.54837 -0.2004,0.15994 -0.53298,0.27895 -0.99857,0.3667 -0.44926,0.0897 -1.03358,0.14198 -1.76474,0.1745 -0.73712,0.0327 -1.61883,0.0324 -2.69551,0.0273 -1.08969,-0.004 -2.01373,-0.0218 -2.7965,-0.0827 -0.77953,-0.0609 -1.40862,-0.10392 -1.88523,-0.14497 0.11436,-0.39588 0.2407,-0.79547 0.37643,-1.19787 0.64768,0.0685 1.32481,0.13581 2.04034,0.20682 0.73078,0.0705 1.46931,0.10931 2.21034,0.12026 z"
         style="font-style:normal;font-variant:normal;font-weight:bold;font-stretch:normal;font-size:60.67777634px;font-family:'Ubuntu Mono';-inkscape-font-specification:'Ubuntu Mono Bold';letter-spacing:0px;fill:#ff0000;stroke:#000000;stroke-width:0.33496636;stroke-miterlimit:4;stroke-dasharray:none;stroke-opacity:1"
         id="path1064"
         inkscape:original-d="m 268.3055,209.57248 q 2.7305,0 4.18676,-0.36406 1.45627,-0.42475 1.45627,-1.6383 0,-0.78882 -0.48542,-1.33492 -0.42475,-0.5461 -1.27423,-0.91016 -0.78882,-0.42475 -1.88101,-0.78881 -1.03153,-0.36407 -2.1844,-0.72814 -1.6383,-0.48542 -3.33728,-1.0922 -1.69898,-0.66745 -3.09457,-1.6383 -1.39559,-0.97084 -2.30575,-2.42711 -0.91017,-1.51694 -0.91017,-3.76202 0,-1.82033 0.66745,-3.39796 0.72814,-1.6383 2.1844,-2.85185 1.51695,-1.27423 3.8227,-1.94169 2.30576,-0.72813 5.52168,-0.72813 2.79118,0 5.15761,0.42474 2.42711,0.42475 4.18677,1.21356 l -1.15288,6.31049 q -1.03152,-0.30339 -3.21592,-0.97085 -2.1844,-0.72813 -4.9149,-0.72813 -2.85186,0 -3.88338,0.72813 -0.97084,0.66746 -0.97084,1.45627 0,0.66745 0.42474,1.21355 0.48542,0.48543 1.21356,0.91017 0.78881,0.42474 1.75965,0.84949 1.03153,0.36407 2.1844,0.72813 1.6383,0.5461 3.39796,1.21356 1.75965,0.66745 3.15524,1.69898 1.45627,0.97084 2.36644,2.54846 0.91016,1.51695 0.91016,3.76202 0,1.75966 -0.66745,3.33728 -0.66746,1.57762 -2.24508,2.7305 -1.51695,1.15288 -4.00473,1.82034 -2.48779,0.66745 -6.12846,0.66745 -3.70134,0 -6.31049,-0.84949 -2.60914,-0.84949 -4.18676,-1.51694 l 1.15287,-6.24981 q 2.12373,0.84949 4.49016,1.57762 2.42711,0.72813 4.9149,0.72813 z"
         inkscape:connector-curvature="0" />
      <path
         d="m 133.61961,202.50785 c -0.0127,0.30864 -0.0432,0.58081 -0.091,0.81786 -0.0293,0.2318 -0.0774,0.45391 -0.14392,0.66621 -0.048,0.20728 -0.1146,0.40909 -0.20001,0.60504 -0.0672,0.19904 -0.14573,0.41886 -0.23559,0.65614 -0.92384,-0.17728 -1.84584,-0.34987 -2.77425,-0.51514 -0.0756,-0.26163 -0.14367,-0.49867 -0.20511,-0.71498 -0.0426,-0.22011 -0.0857,-0.43837 -0.12948,-0.65427 -0.0437,-0.21596 -0.0784,-0.44007 -0.10369,-0.67299 -0.007,-0.23813 -0.004,-0.50538 0.0106,-0.80401 0.0305,-0.68038 0.0582,-1.37864 0.0833,-2.09503 0.82307,0.11483 3.03794,0.4342 3.86104,0.54916 -0.0191,0.7376 -0.0427,1.45915 -0.0714,2.16201 z m 0.0197,4.68342 c -0.029,0.29044 -0.28643,0.45962 -0.76812,0.5125 -0.46371,0.0569 -0.98079,0.0178 -1.55138,-0.10509 -0.56983,-0.12345 -1.08199,-0.30809 -1.53339,-0.5524 -0.43446,-0.24128 -0.64342,-0.49392 -0.62355,-0.77028 0.0195,-0.26898 0.25956,-0.44527 0.72336,-0.52225 0.48199,-0.0735 1.01247,-0.0572 1.59121,0.0556 0.57883,0.11272 1.08619,0.29863 1.52287,0.55816 0.45424,0.26298 0.66717,0.54115 0.639,0.8239 z"
         style="font-style:normal;font-variant:normal;font-weight:bold;font-stretch:normal;font-size:60.67777634px;font-family:'Ubuntu Mono';-inkscape-font-specification:'Ubuntu Mono Bold';letter-spacing:0px;fill:#ff0000;stroke:#000000;stroke-width:0.33496636;stroke-miterlimit:4;stroke-dasharray:none;stroke-opacity:1"
         id="path1066"
         inkscape:original-d="m 304.28741,187.60713 q 0,2.1844 -0.12135,3.94405 -0.0607,1.69898 -0.24271,3.33728 -0.12136,1.57762 -0.36407,3.15524 -0.18203,1.57763 -0.42474,3.51932 h -6.18914 q -0.30339,-1.94169 -0.5461,-3.51932 -0.18203,-1.6383 -0.36406,-3.21592 -0.18204,-1.57762 -0.30339,-3.2766 -0.0607,-1.75965 -0.0607,-3.94405 v -9.95116 h 8.61624 z m 0.72814,23.30026 q 0,2.36644 -1.57762,3.70135 -1.51695,1.33491 -3.45864,1.33491 -1.94169,0 -3.51931,-1.33491 -1.51694,-1.33491 -1.51694,-3.70135 0,-2.30575 1.51694,-3.64066 1.57762,-1.33491 3.51931,-1.33491 1.94169,0 3.45864,1.33491 1.57762,1.33491 1.57762,3.64066 z"
         inkscape:connector-curvature="0" />
    </g>
  </g>
</svg>
